<svg width="82" height="16" viewBox="0 0 82 16" fill="none" xmlns="http://www.w3.org/2000/svg">
<path d="M4.224 12.176C3.50933 12.176 2.86933 11.9893 2.304 11.616C1.74933 11.232 1.312 10.7093 0.992 10.048C0.672 9.376 0.512 8.608 0.512 7.744C0.512 6.88 0.672 6.11733 0.992 5.456C1.32267 4.784 1.77067 4.256 2.336 3.872C2.90133 3.488 3.54667 3.296 4.272 3.296C4.64533 3.296 5.00267 3.34933 5.344 3.456C5.68533 3.56267 5.98933 3.712 6.256 3.904C6.53333 4.096 6.76267 4.32 6.944 4.576C7.136 4.832 7.25867 5.104 7.312 5.392L6.624 5.584V0.16H9.616V12H6.912L6.704 10.096L7.296 10.208C7.25333 10.4853 7.14133 10.7413 6.96 10.976C6.77867 11.2107 6.54933 11.4187 6.272 11.6C6.00533 11.7813 5.69067 11.92 5.328 12.016C4.976 12.1227 4.608 12.176 4.224 12.176ZM5.072 9.744C5.41333 9.744 5.70667 9.664 5.952 9.504C6.19733 9.33333 6.384 9.104 6.512 8.816C6.64 8.51733 6.704 8.16 6.704 7.744C6.704 7.328 6.64 6.97067 6.512 6.672C6.384 6.36267 6.19733 6.13333 5.952 5.984C5.70667 5.824 5.41333 5.744 5.072 5.744C4.73067 5.744 4.43733 5.824 4.192 5.984C3.94667 6.13333 3.76 6.36267 3.632 6.672C3.504 6.97067 3.44 7.328 3.44 7.744C3.44 8.16 3.504 8.51733 3.632 8.816C3.76 9.104 3.94667 9.33333 4.192 9.504C4.43733 9.664 4.73067 9.744 5.072 9.744ZM15.8414 12.16C14.8707 12.16 14.0334 11.9733 13.3294 11.6C12.6254 11.216 12.0814 10.6933 11.6974 10.032C11.3134 9.36 11.1214 8.59733 11.1214 7.744C11.1214 7.104 11.228 6.512 11.4414 5.968C11.6547 5.424 11.9534 4.95467 12.3374 4.56C12.7214 4.15467 13.1747 3.84533 13.6974 3.632C14.2307 3.408 14.812 3.296 15.4414 3.296C16.06 3.296 16.62 3.40267 17.1214 3.616C17.6334 3.82933 18.0707 4.13333 18.4334 4.528C18.8067 4.92267 19.0894 5.38667 19.2814 5.92C19.484 6.45333 19.5747 7.04 19.5534 7.68L19.5374 8.352H12.8174L12.4494 6.864H17.1534L16.8654 7.184V6.88C16.8654 6.64533 16.8014 6.44267 16.6734 6.272C16.556 6.09067 16.396 5.952 16.1934 5.856C15.9907 5.76 15.7614 5.712 15.5054 5.712C15.1427 5.712 14.8387 5.78667 14.5934 5.936C14.3587 6.07467 14.1774 6.27733 14.0494 6.544C13.9214 6.81067 13.8574 7.13067 13.8574 7.504C13.8574 7.93067 13.9427 8.29867 14.1134 8.608C14.2947 8.91733 14.556 9.15733 14.8974 9.328C15.2494 9.49867 15.676 9.584 16.1774 9.584C16.508 9.584 16.796 9.54133 17.0414 9.456C17.2974 9.37067 17.5694 9.22133 17.8574 9.008L19.2334 10.944C18.86 11.2427 18.4814 11.4827 18.0974 11.664C17.724 11.8347 17.3507 11.9573 16.9774 12.032C16.604 12.1173 16.2254 12.16 15.8414 12.16ZM23.5081 12L19.9561 3.472H23.2681L25.1721 9.84L24.4041 9.856L26.3241 3.472H29.6201L25.8921 12H23.5081ZM29.9503 15.312V12.832H39.8223V15.312H29.9503ZM41.4794 12V3.472H44.2634L44.3914 5.2L43.7834 5.392C43.89 4.98667 44.098 4.62933 44.4074 4.32C44.7167 4 45.0847 3.74933 45.5114 3.568C45.938 3.38667 46.386 3.296 46.8554 3.296C47.4954 3.296 48.034 3.42933 48.4714 3.696C48.9194 3.952 49.2554 4.34133 49.4794 4.864C49.714 5.376 49.8314 6.00533 49.8314 6.752V12H46.8554V6.992C46.8554 6.71467 46.8127 6.48533 46.7274 6.304C46.642 6.112 46.514 5.968 46.3434 5.872C46.1727 5.776 45.97 5.73333 45.7354 5.744C45.554 5.744 45.3834 5.77067 45.2234 5.824C45.074 5.87733 44.9407 5.96267 44.8234 6.08C44.706 6.18667 44.6154 6.30933 44.5514 6.448C44.498 6.58667 44.4714 6.74133 44.4714 6.912V12H42.9834C42.6207 12 42.3114 12 42.0554 12C41.81 12 41.618 12 41.4794 12ZM56.0445 12.16C55.0738 12.16 54.2365 11.9733 53.5325 11.6C52.8285 11.216 52.2845 10.6933 51.9005 10.032C51.5165 9.36 51.3245 8.59733 51.3245 7.744C51.3245 7.104 51.4312 6.512 51.6445 5.968C51.8578 5.424 52.1565 4.95467 52.5405 4.56C52.9245 4.15467 53.3778 3.84533 53.9005 3.632C54.4338 3.408 55.0152 3.296 55.6445 3.296C56.2632 3.296 56.8232 3.40267 57.3245 3.616C57.8365 3.82933 58.2738 4.13333 58.6365 4.528C59.0098 4.92267 59.2925 5.38667 59.4845 5.92C59.6872 6.45333 59.7778 7.04 59.7565 7.68L59.7405 8.352H53.0205L52.6525 6.864H57.3565L57.0685 7.184V6.88C57.0685 6.64533 57.0045 6.44267 56.8765 6.272C56.7592 6.09067 56.5992 5.952 56.3965 5.856C56.1938 5.76 55.9645 5.712 55.7085 5.712C55.3458 5.712 55.0418 5.78667 54.7965 5.936C54.5618 6.07467 54.3805 6.27733 54.2525 6.544C54.1245 6.81067 54.0605 7.13067 54.0605 7.504C54.0605 7.93067 54.1458 8.29867 54.3165 8.608C54.4978 8.91733 54.7592 9.15733 55.1005 9.328C55.4525 9.49867 55.8792 9.584 56.3805 9.584C56.7112 9.584 56.9992 9.54133 57.2445 9.456C57.5005 9.37067 57.7725 9.22133 58.0605 9.008L59.4365 10.944C59.0632 11.2427 58.6845 11.4827 58.3005 11.664C57.9272 11.8347 57.5538 11.9573 57.1805 12.032C56.8072 12.1173 56.4285 12.16 56.0445 12.16ZM62.9273 12L60.1593 3.472H63.3113L64.6873 8.64L64.3513 8.576L65.9033 4.56H67.6313L69.3113 8.576L68.9753 8.624L70.3353 3.472H73.4873L70.5753 12H68.3353L66.7193 7.808H66.8313L65.1673 12H62.9273ZM77.5633 12.16C76.6779 12.16 75.8993 12.0213 75.2273 11.744C74.5553 11.4667 74.0326 11.1093 73.6593 10.672L75.4033 9.168C75.7446 9.47733 76.1286 9.70667 76.5553 9.856C76.9926 10.0053 77.3766 10.08 77.7073 10.08C77.8246 10.08 77.9313 10.0693 78.0273 10.048C78.1233 10.0267 78.1979 9.99467 78.2513 9.952C78.3153 9.89867 78.3633 9.84533 78.3953 9.792C78.4379 9.728 78.4593 9.65867 78.4593 9.584C78.4593 9.40267 78.3686 9.264 78.1873 9.168C78.0913 9.12533 77.9313 9.072 77.7073 9.008C77.4939 8.93333 77.2059 8.85333 76.8433 8.768C76.3953 8.65067 75.9953 8.512 75.6432 8.352C75.2913 8.18133 74.9926 7.984 74.7473 7.76C74.5126 7.536 74.3259 7.28 74.1873 6.992C74.0593 6.69333 73.9953 6.368 73.9953 6.016C73.9953 5.58933 74.0913 5.21067 74.2833 4.88C74.4753 4.54933 74.7419 4.26667 75.0833 4.032C75.4246 3.78667 75.8086 3.60533 76.2353 3.488C76.6619 3.36 77.0993 3.296 77.5473 3.296C78.0486 3.296 78.5179 3.34933 78.9553 3.456C79.4033 3.552 79.8193 3.696 80.2033 3.888C80.5979 4.06933 80.9499 4.29333 81.2593 4.56L79.7233 6.256C79.5419 6.096 79.3286 5.94667 79.0833 5.808C78.8486 5.66933 78.6033 5.55733 78.3473 5.472C78.0913 5.376 77.8513 5.328 77.6273 5.328C77.4886 5.328 77.3713 5.33867 77.2753 5.36C77.1793 5.38133 77.0993 5.41333 77.0353 5.456C76.9713 5.49867 76.9233 5.552 76.8913 5.616C76.8593 5.68 76.8433 5.74933 76.8433 5.824C76.8433 5.92 76.8699 6.01067 76.9233 6.096C76.9766 6.18133 77.0619 6.25067 77.1793 6.304C77.2753 6.35733 77.4353 6.42667 77.6593 6.512C77.8939 6.58667 78.2299 6.68267 78.6673 6.8C79.1579 6.93867 79.5846 7.09867 79.9473 7.28C80.3099 7.46133 80.6033 7.66933 80.8273 7.904C80.9873 8.08533 81.1099 8.288 81.1953 8.512C81.2806 8.72533 81.3233 8.96533 81.3233 9.232C81.3233 9.79733 81.1579 10.304 80.8273 10.752C80.5073 11.1893 80.0646 11.536 79.4993 11.792C78.9339 12.0373 78.2886 12.16 77.5633 12.16Z" fill="white"/>
</svg>
